<svg xmlns="http://www.w3.org/2000/svg" width="186" height="36" viewBox="0 0 186 36" role="img" aria-label="Built with Surface">
  <rect width="186" height="36" rx="18" fill="#0f6b52"/>
  <g fill="none" stroke="#eafff6" stroke-width="1.6" stroke-linecap="round" transform="translate(10 6)">
    <path d="M12 4.5c4.7 0 8 2.6 8 6.1 0 4.2-3.9 8.9-8 8.9s-8-4.7-8-8.9c0-3.5 3.3-6.1 8-6.1Z"/>
    <path d="M12 8.1c2.8 0 4.8 1.4 4.8 3.4 0 2.4-2.2 5-4.8 5s-4.8-2.6-4.8-5c0-2 2-3.4 4.8-3.4Z"/>
    <path d="M12 11.6c1 0 1.7.5 1.7 1.2 0 .9-.8 1.8-1.7 1.8s-1.7-.9-1.7-1.8c0-.7.7-1.2 1.7-1.2Z"/>
  </g>
  <text x="44" y="23" font-family="system-ui, -apple-system, 'Segoe UI', sans-serif" font-size="13" font-weight="600" fill="#eafff6">Built with Surface</text>
</svg>
